<svg width="27" height="38" viewBox="0 0 27 38" fill="none" xmlns="http://www.w3.org/2000/svg">
<path d="M23.1448 16.1V11.4C23.1448 4.8 19.7985 1 13.8932 1C7.98793 1 4.74002 4.8 4.74002 11.4V12.6C4.74002 12.9 4.93686 13.1 5.23213 13.1C5.52739 13.1 5.72423 12.9 5.72423 12.6V11.4C5.72423 7.9 6.80687 2.1 13.8932 2.1C20.9796 2.1 22.0622 7.9 22.0622 11.4V16.1H4.24791C2.47632 16.1 1 17.6 1 19.4L1.68895 33.7C1.68895 35.5 3.16527 37 4.93686 37H21.9638C23.7354 37 25.2117 35.5 25.2117 33.7L25.9006 19.5C25.8022 17.7 24.6212 16.4 23.1448 16.1ZM24.0306 33.6C24.0306 34.9 23.0464 35.8 21.8654 35.8H4.93686C3.7558 35.8 2.77159 34.8 2.77159 33.6L2.08264 19.3C2.08264 18.1 3.06685 17.1 4.24791 17.1H22.5543C23.7354 17.1 24.7196 18.1 24.7196 19.3L24.0306 33.6Z" fill="#071F42" stroke="#071F42" stroke-width="0.961462"/>
</svg>
