<svg width="198" height="38" viewBox="0 0 198 38" fill="none" xmlns="http://www.w3.org/2000/svg">
<path d="M45.5941 24.144C44.7728 24.144 43.9941 24.0373 43.2581 23.824C42.5328 23.6 41.9408 23.3013 41.4821 22.928C41.2368 22.7467 41.1141 22.4907 41.1141 22.16C41.1141 21.936 41.1781 21.744 41.3061 21.584C41.4448 21.4133 41.6048 21.328 41.7861 21.328C41.9781 21.328 42.1968 21.4027 42.4421 21.552C42.9008 21.8827 43.3808 22.1227 43.8821 22.272C44.3835 22.4213 44.9381 22.496 45.5461 22.496C46.3248 22.496 46.9221 22.3627 47.3381 22.096C47.7541 21.8187 47.9621 21.4187 47.9621 20.896C47.9621 20.4907 47.7648 20.1813 47.3701 19.968C46.9861 19.744 46.3408 19.5307 45.4341 19.328C44.4955 19.1253 43.7328 18.8907 43.1461 18.624C42.5595 18.3573 42.1168 18.016 41.8181 17.6C41.5195 17.184 41.3701 16.656 41.3701 16.016C41.3701 15.3547 41.5568 14.7627 41.9301 14.24C42.3035 13.7173 42.8208 13.312 43.4821 13.024C44.1541 12.7253 44.9061 12.576 45.7381 12.576C47.2635 12.576 48.5061 12.9813 49.4661 13.792C49.6048 13.9093 49.7008 14.0267 49.7541 14.144C49.8181 14.2507 49.8501 14.3893 49.8501 14.56C49.8501 14.784 49.7808 14.9813 49.6421 15.152C49.5141 15.312 49.3595 15.392 49.1781 15.392C49.0715 15.392 48.9701 15.376 48.8741 15.344C48.7888 15.312 48.6715 15.2533 48.5221 15.168C48.0848 14.848 47.6581 14.6133 47.2421 14.464C46.8368 14.304 46.3355 14.224 45.7381 14.224C45.0128 14.224 44.4368 14.3733 44.0101 14.672C43.5941 14.96 43.3861 15.3653 43.3861 15.888C43.3861 16.3253 43.5728 16.6613 43.9461 16.896C44.3195 17.1307 44.9541 17.3493 45.8501 17.552C46.7995 17.7653 47.5675 18.0053 48.1541 18.272C48.7515 18.528 49.2048 18.8587 49.5141 19.264C49.8341 19.6693 49.9941 20.176 49.9941 20.784C49.9941 21.4453 49.8075 22.032 49.4341 22.544C49.0715 23.0453 48.5541 23.44 47.8821 23.728C47.2208 24.0053 46.4581 24.144 45.5941 24.144ZM64.4692 12.64C64.7679 12.64 65.0079 12.736 65.1892 12.928C65.3706 13.1093 65.4612 13.3547 65.4612 13.664V23.136C65.4612 23.4347 65.3759 23.6693 65.2052 23.84C65.0346 24.0107 64.8106 24.096 64.5332 24.096C64.2559 24.096 64.0372 24.0107 63.8772 23.84C63.7172 23.6693 63.6372 23.4347 63.6372 23.136V16.544L60.9172 21.696C60.7892 21.9307 60.6506 22.1067 60.5012 22.224C60.3519 22.3307 60.1759 22.384 59.9732 22.384C59.7706 22.384 59.5946 22.3307 59.4452 22.224C59.2959 22.1173 59.1572 21.9413 59.0292 21.696L56.2932 16.624V23.136C56.2932 23.424 56.2079 23.6587 56.0372 23.84C55.8772 24.0107 55.6586 24.096 55.3812 24.096C55.1039 24.096 54.8852 24.0107 54.7252 23.84C54.5652 23.6693 54.4852 23.4347 54.4852 23.136V13.664C54.4852 13.3547 54.5706 13.1093 54.7412 12.928C54.9226 12.736 55.1626 12.64 55.4612 12.64C55.8772 12.64 56.2026 12.8693 56.4372 13.328L59.9892 20.096L63.5252 13.328C63.7599 12.8693 64.0746 12.64 64.4692 12.64ZM71.4904 24.096C71.181 24.096 70.9304 24 70.7384 23.808C70.557 23.616 70.4664 23.3653 70.4664 23.056V13.664C70.4664 13.3547 70.557 13.1093 70.7384 12.928C70.9304 12.736 71.181 12.64 71.4904 12.64C71.8104 12.64 72.061 12.736 72.2424 12.928C72.4344 13.1093 72.5304 13.3547 72.5304 13.664V23.056C72.5304 23.3653 72.4344 23.616 72.2424 23.808C72.061 24 71.8104 24.096 71.4904 24.096ZM78.5024 24C78.193 24 77.953 23.9147 77.7824 23.744C77.6117 23.5733 77.5264 23.3387 77.5264 23.04V13.664C77.5264 13.3547 77.617 13.1093 77.7984 12.928C77.9904 12.736 78.241 12.64 78.5504 12.64C78.8704 12.64 79.121 12.736 79.3024 12.928C79.4944 13.1093 79.5904 13.3547 79.5904 13.664V22.304H84.0864C84.7264 22.304 85.0464 22.5867 85.0464 23.152C85.0464 23.7173 84.7264 24 84.0864 24H78.5024ZM89.9534 24C89.644 24 89.3987 23.9147 89.2174 23.744C89.0467 23.5733 88.9614 23.3333 88.9614 23.024V13.696C88.9614 13.3867 89.0467 13.1467 89.2174 12.976C89.3987 12.8053 89.644 12.72 89.9534 12.72H95.7294C96.0387 12.72 96.2787 12.7893 96.4494 12.928C96.62 13.0667 96.7054 13.264 96.7054 13.52C96.7054 13.7867 96.62 13.9947 96.4494 14.144C96.2787 14.2827 96.0387 14.352 95.7294 14.352H90.9774V17.456H95.4094C95.7187 17.456 95.9587 17.5253 96.1294 17.664C96.3 17.8027 96.3854 18.0053 96.3854 18.272C96.3854 18.528 96.3 18.7253 96.1294 18.864C95.9587 19.0027 95.7187 19.072 95.4094 19.072H90.9774V22.368H95.7294C96.0387 22.368 96.2787 22.4427 96.4494 22.592C96.62 22.7307 96.7054 22.9333 96.7054 23.2C96.7054 23.456 96.62 23.6533 96.4494 23.792C96.2787 23.9307 96.0387 24 95.7294 24H89.9534ZM108.871 24.096C108.562 24.096 108.311 24 108.119 23.808C107.938 23.616 107.847 23.3653 107.847 23.056V13.664C107.847 13.3547 107.938 13.1093 108.119 12.928C108.311 12.736 108.562 12.64 108.871 12.64C109.191 12.64 109.442 12.736 109.623 12.928C109.815 13.1093 109.911 13.3547 109.911 13.664V23.056C109.911 23.3653 109.815 23.616 109.623 23.808C109.442 24 109.191 24.096 108.871 24.096ZM115.899 24C115.59 24 115.344 23.9147 115.163 23.744C114.992 23.5733 114.907 23.3333 114.907 23.024V13.696C114.907 13.3867 114.992 13.1467 115.163 12.976C115.344 12.8053 115.59 12.72 115.899 12.72H119.067C120.912 12.72 122.342 13.216 123.355 14.208C124.379 15.1893 124.891 16.5707 124.891 18.352C124.891 20.144 124.379 21.536 123.355 22.528C122.342 23.5093 120.912 24 119.067 24H115.899ZM118.939 22.32C121.531 22.32 122.827 20.9973 122.827 18.352C122.827 15.7173 121.531 14.4 118.939 14.4H116.971V22.32H118.939ZM130.521 24C130.212 24 129.967 23.9147 129.785 23.744C129.615 23.5733 129.529 23.3333 129.529 23.024V13.696C129.529 13.3867 129.615 13.1467 129.785 12.976C129.967 12.8053 130.212 12.72 130.521 12.72H136.297C136.607 12.72 136.847 12.7893 137.017 12.928C137.188 13.0667 137.273 13.264 137.273 13.52C137.273 13.7867 137.188 13.9947 137.017 14.144C136.847 14.2827 136.607 14.352 136.297 14.352H131.545V17.456H135.977C136.287 17.456 136.527 17.5253 136.697 17.664C136.868 17.8027 136.953 18.0053 136.953 18.272C136.953 18.528 136.868 18.7253 136.697 18.864C136.527 19.0027 136.287 19.072 135.977 19.072H131.545V22.368H136.297C136.607 22.368 136.847 22.4427 137.017 22.592C137.188 22.7307 137.273 22.9333 137.273 23.2C137.273 23.456 137.188 23.6533 137.017 23.792C136.847 23.9307 136.607 24 136.297 24H130.521ZM150.055 12.64C150.354 12.64 150.589 12.736 150.759 12.928C150.941 13.1093 151.031 13.3547 151.031 13.664V23.056C151.031 23.3653 150.941 23.616 150.759 23.808C150.578 24 150.343 24.096 150.055 24.096C149.714 24.096 149.453 23.9733 149.271 23.728L143.431 16.128V23.056C143.431 23.3653 143.346 23.616 143.175 23.808C143.005 24 142.77 24.096 142.471 24.096C142.173 24.096 141.938 24 141.767 23.808C141.597 23.616 141.511 23.3653 141.511 23.056V13.664C141.511 13.3547 141.602 13.1093 141.783 12.928C141.965 12.736 142.205 12.64 142.503 12.64C142.834 12.64 143.09 12.7627 143.271 13.008L149.095 20.576V13.664C149.095 13.3547 149.181 13.1093 149.351 12.928C149.533 12.736 149.767 12.64 150.055 12.64ZM159.72 24.08C159.4 24.08 159.144 23.9893 158.952 23.808C158.771 23.616 158.68 23.3653 158.68 23.056V14.416H155.768C155.128 14.416 154.808 14.1333 154.808 13.568C154.808 13.0027 155.128 12.72 155.768 12.72H163.656C164.296 12.72 164.616 13.0027 164.616 13.568C164.616 14.1333 164.296 14.416 163.656 14.416H160.744V23.056C160.744 23.3653 160.648 23.616 160.456 23.808C160.275 23.9893 160.03 24.08 159.72 24.08ZM169.421 24.096C169.112 24.096 168.861 24 168.669 23.808C168.488 23.616 168.397 23.3653 168.397 23.056V13.664C168.397 13.3547 168.488 13.1093 168.669 12.928C168.861 12.736 169.112 12.64 169.421 12.64C169.741 12.64 169.992 12.736 170.173 12.928C170.365 13.1093 170.461 13.3547 170.461 13.664V23.056C170.461 23.3653 170.365 23.616 170.173 23.808C169.992 24 169.741 24.096 169.421 24.096ZM179.153 24.08C178.833 24.08 178.577 23.9893 178.385 23.808C178.204 23.616 178.113 23.3653 178.113 23.056V14.416H175.201C174.561 14.416 174.241 14.1333 174.241 13.568C174.241 13.0027 174.561 12.72 175.201 12.72H183.089C183.729 12.72 184.049 13.0027 184.049 13.568C184.049 14.1333 183.729 14.416 183.089 14.416H180.177V23.056C180.177 23.3653 180.081 23.616 179.889 23.808C179.708 23.9893 179.462 24.08 179.153 24.08ZM195.104 12.992C195.296 12.7573 195.525 12.64 195.792 12.64C196.037 12.64 196.256 12.736 196.448 12.928C196.64 13.1093 196.736 13.328 196.736 13.584C196.736 13.7973 196.656 14 196.496 14.192L192.864 18.624V23.056C192.864 23.3867 192.768 23.6427 192.576 23.824C192.384 24.0053 192.139 24.096 191.84 24.096C191.531 24.096 191.28 24.0053 191.088 23.824C190.896 23.6427 190.8 23.3867 190.8 23.056V18.624L187.168 14.192C187.008 14 186.928 13.7973 186.928 13.584C186.928 13.328 187.024 13.1093 187.216 12.928C187.408 12.736 187.627 12.64 187.872 12.64C188.139 12.64 188.368 12.7573 188.56 12.992L191.84 17.056L195.104 12.992Z" fill="#071F42"/>
<path d="M23.1448 16.1V11.4C23.1448 4.8 19.7985 1 13.8932 1C7.98793 1 4.74002 4.8 4.74002 11.4V12.6C4.74002 12.9 4.93686 13.1 5.23213 13.1C5.52739 13.1 5.72423 12.9 5.72423 12.6V11.4C5.72423 7.9 6.80687 2.1 13.8932 2.1C20.9796 2.1 22.0622 7.9 22.0622 11.4V16.1H4.24791C2.47632 16.1 1 17.6 1 19.4L1.68895 33.7C1.68895 35.5 3.16527 37 4.93686 37H21.9638C23.7354 37 25.2117 35.5 25.2117 33.7L25.9006 19.5C25.8022 17.7 24.6212 16.4 23.1448 16.1ZM24.0306 33.6C24.0306 34.9 23.0464 35.8 21.8654 35.8H4.93686C3.7558 35.8 2.77159 34.8 2.77159 33.6L2.08264 19.3C2.08264 18.1 3.06685 17.1 4.24791 17.1H22.5543C23.7354 17.1 24.7196 18.1 24.7196 19.3L24.0306 33.6Z" fill="#071F42" stroke="#071F42" stroke-width="0.961462"/>
<path d="M6.61006 27.4C10.9406 31.4 16.2554 30.9 20.6843 27.4C21.2749 26.9 20.3891 26 19.7986 26.5C15.8617 29.6 11.2359 30 7.39744 26.5C6.90533 26 6.01954 26.8 6.61006 27.4Z" fill="#17A3DC" stroke="#17A3DC" stroke-width="0.961462"/>
</svg>
