<svg width="86" height="86" viewBox="0 0 86 86" fill="none" xmlns="http://www.w3.org/2000/svg">
<circle cx="43" cy="43" r="43" fill="url(#paint0_linear_1_5175)"/>
<mask id="mask0_1_5175" style="mask-type:alpha" maskUnits="userSpaceOnUse" x="0" y="0" width="86" height="86">
<path d="M43.0001 86C66.7483 86 86.0001 66.7482 86.0001 43C86.0001 19.2518 66.7483 0 43.0001 0C19.2518 0 6.10352e-05 19.2518 6.10352e-05 43C6.10352e-05 66.7482 19.2518 86 43.0001 86Z" fill="url(#paint1_linear_1_5175)"/>
</mask>
<g mask="url(#mask0_1_5175)">
<path d="M48.5 63.409C47.0272 63.409 45.8333 64.6029 45.8333 66.0757C45.8333 67.5484 47.0272 68.7424 48.5 68.7424C49.9728 68.7424 51.1667 67.5484 51.1667 66.0757C51.1667 64.6029 49.9728 63.409 48.5 63.409ZM48 92.0757C48 92.3518 48.2239 92.5757 48.5 92.5757C48.7761 92.5757 49 92.3518 49 92.0757L48 92.0757ZM48 67.3757C48 67.6518 48.2239 67.8757 48.5 67.8757C48.7761 67.8757 49 67.6518 49 67.3757L48 67.3757ZM49 69.9757C49 69.6995 48.7761 69.4757 48.5 69.4757C48.2239 69.4757 48 69.6995 48 69.9757L49 69.9757ZM48 72.5757C48 72.8518 48.2239 73.0757 48.5 73.0757C48.7761 73.0757 49 72.8518 49 72.5757L48 72.5757ZM49 75.1757C49 74.8995 48.7761 74.6757 48.5 74.6757C48.2239 74.6757 48 74.8995 48 75.1757L49 75.1757ZM48 77.7757C48 78.0518 48.2239 78.2757 48.5 78.2757C48.7761 78.2757 49 78.0518 49 77.7757L48 77.7757ZM49 80.3757C49 80.0995 48.7761 79.8757 48.5 79.8757C48.2239 79.8757 48 80.0995 48 80.3757L49 80.3757ZM48 82.9757C48 83.2518 48.2239 83.4757 48.5 83.4757C48.7761 83.4757 49 83.2518 49 82.9757L48 82.9757ZM49 85.5757C49 85.2995 48.7761 85.0757 48.5 85.0757C48.2239 85.0757 48 85.2995 48 85.5757L49 85.5757ZM48 88.1757C48 88.4518 48.2239 88.6757 48.5 88.6757C48.7761 88.6757 49 88.4518 49 88.1757L48 88.1757ZM49 90.7757C49 90.4995 48.7761 90.2757 48.5 90.2757C48.2239 90.2757 48 90.4995 48 90.7757L49 90.7757ZM48 66.0757L48 67.3757L49 67.3757L49 66.0757L48 66.0757ZM48 69.9757L48 72.5757L49 72.5757L49 69.9757L48 69.9757ZM48 75.1757L48 77.7757L49 77.7757L49 75.1757L48 75.1757ZM48 80.3757L48 82.9757L49 82.9757L49 80.3757L48 80.3757ZM48 85.5757L48 88.1757L49 88.1757L49 85.5757L48 85.5757ZM48 90.7757L48 92.0757L49 92.0757L49 90.7757L48 90.7757Z" fill="#5F819B"/>
<path d="M13.3333 54.5757C13.3333 56.0484 14.5272 57.2424 16 57.2424C17.4728 57.2424 18.6667 56.0484 18.6667 54.5757C18.6667 53.1029 17.4728 51.909 16 51.909C14.5272 51.909 13.3333 53.1029 13.3333 54.5757ZM16 66.5757H15.5V67.0757H16V66.5757ZM79 66.5757V67.0757H79.5V66.5757H79ZM79.5 54.5757C79.5 54.2995 79.2761 54.0757 79 54.0757C78.7239 54.0757 78.5 54.2995 78.5 54.5757H79.5ZM15.5 56.0757C15.5 56.3518 15.7239 56.5757 16 56.5757C16.2761 56.5757 16.5 56.3518 16.5 56.0757H15.5ZM16.5 59.0757C16.5 58.7995 16.2761 58.5757 16 58.5757C15.7239 58.5757 15.5 58.7995 15.5 59.0757H16.5ZM15.5 62.0757C15.5 62.3518 15.7239 62.5757 16 62.5757C16.2761 62.5757 16.5 62.3518 16.5 62.0757H15.5ZM16.5 65.0757C16.5 64.7995 16.2761 64.5757 16 64.5757C15.7239 64.5757 15.5 64.7995 15.5 65.0757H16.5ZM17.2708 67.0757C17.547 67.0757 17.7708 66.8518 17.7708 66.5757C17.7708 66.2995 17.547 66.0757 17.2708 66.0757V67.0757ZM19.8125 66.0757C19.5364 66.0757 19.3125 66.2995 19.3125 66.5757C19.3125 66.8518 19.5364 67.0757 19.8125 67.0757V66.0757ZM22.3542 67.0757C22.6303 67.0757 22.8542 66.8518 22.8542 66.5757C22.8542 66.2995 22.6303 66.0757 22.3542 66.0757V67.0757ZM24.8958 66.0757C24.6197 66.0757 24.3958 66.2995 24.3958 66.5757C24.3958 66.8518 24.6197 67.0757 24.8958 67.0757V66.0757ZM27.4375 67.0757C27.7136 67.0757 27.9375 66.8518 27.9375 66.5757C27.9375 66.2995 27.7136 66.0757 27.4375 66.0757V67.0757ZM29.9792 66.0757C29.703 66.0757 29.4792 66.2995 29.4792 66.5757C29.4792 66.8518 29.703 67.0757 29.9792 67.0757V66.0757ZM32.5208 67.0757C32.797 67.0757 33.0208 66.8518 33.0208 66.5757C33.0208 66.2995 32.797 66.0757 32.5208 66.0757V67.0757ZM35.0625 66.0757C34.7864 66.0757 34.5625 66.2995 34.5625 66.5757C34.5625 66.8518 34.7864 67.0757 35.0625 67.0757V66.0757ZM37.6042 67.0757C37.8803 67.0757 38.1042 66.8518 38.1042 66.5757C38.1042 66.2995 37.8803 66.0757 37.6042 66.0757V67.0757ZM40.1458 66.0757C39.8697 66.0757 39.6458 66.2995 39.6458 66.5757C39.6458 66.8518 39.8697 67.0757 40.1458 67.0757V66.0757ZM42.6875 67.0757C42.9636 67.0757 43.1875 66.8518 43.1875 66.5757C43.1875 66.2995 42.9636 66.0757 42.6875 66.0757V67.0757ZM45.2292 66.0757C44.953 66.0757 44.7292 66.2995 44.7292 66.5757C44.7292 66.8518 44.953 67.0757 45.2292 67.0757V66.0757ZM47.6607 67.0757C47.9369 67.0757 48.1607 66.8518 48.1607 66.5757C48.1607 66.2995 47.9369 66.0757 47.6607 66.0757V67.0757ZM49.9821 66.0757C49.706 66.0757 49.4821 66.2995 49.4821 66.5757C49.4821 66.8518 49.706 67.0757 49.9821 67.0757V66.0757ZM52.3036 67.0757C52.5797 67.0757 52.8036 66.8518 52.8036 66.5757C52.8036 66.2995 52.5797 66.0757 52.3036 66.0757V67.0757ZM54.625 66.0757C54.3489 66.0757 54.125 66.2995 54.125 66.5757C54.125 66.8518 54.3489 67.0757 54.625 67.0757V66.0757ZM56.9464 67.0757C57.2226 67.0757 57.4464 66.8518 57.4464 66.5757C57.4464 66.2995 57.2226 66.0757 56.9464 66.0757V67.0757ZM59.2679 66.0757C58.9917 66.0757 58.7679 66.2995 58.7679 66.5757C58.7679 66.8518 58.9917 67.0757 59.2679 67.0757V66.0757ZM61.5893 67.0757C61.8654 67.0757 62.0893 66.8518 62.0893 66.5757C62.0893 66.2995 61.8654 66.0757 61.5893 66.0757V67.0757ZM63.9107 66.0757C63.6346 66.0757 63.4107 66.2995 63.4107 66.5757C63.4107 66.8518 63.6346 67.0757 63.9107 67.0757V66.0757ZM66.2321 67.0757C66.5083 67.0757 66.7321 66.8518 66.7321 66.5757C66.7321 66.2995 66.5083 66.0757 66.2321 66.0757V67.0757ZM68.5536 66.0757C68.2774 66.0757 68.0536 66.2995 68.0536 66.5757C68.0536 66.8518 68.2774 67.0757 68.5536 67.0757V66.0757ZM70.875 67.0757C71.1511 67.0757 71.375 66.8518 71.375 66.5757C71.375 66.2995 71.1511 66.0757 70.875 66.0757V67.0757ZM73.1964 66.0757C72.9203 66.0757 72.6964 66.2995 72.6964 66.5757C72.6964 66.8518 72.9203 67.0757 73.1964 67.0757V66.0757ZM75.5179 67.0757C75.794 67.0757 76.0179 66.8518 76.0179 66.5757C76.0179 66.2995 75.794 66.0757 75.5179 66.0757V67.0757ZM77.8393 66.0757C77.5631 66.0757 77.3393 66.2995 77.3393 66.5757C77.3393 66.8518 77.5631 67.0757 77.8393 67.0757V66.0757ZM79.5 65.0757C79.5 64.7995 79.2761 64.5757 79 64.5757C78.7239 64.5757 78.5 64.7995 78.5 65.0757H79.5ZM78.5 62.0757C78.5 62.3518 78.7239 62.5757 79 62.5757C79.2761 62.5757 79.5 62.3518 79.5 62.0757H78.5ZM79.5 59.0757C79.5 58.7995 79.2761 58.5757 79 58.5757C78.7239 58.5757 78.5 58.7995 78.5 59.0757H79.5ZM78.5 56.0757C78.5 56.3518 78.7239 56.5757 79 56.5757C79.2761 56.5757 79.5 56.3518 79.5 56.0757H78.5ZM15.5 54.5757V56.0757H16.5V54.5757H15.5ZM15.5 59.0757V62.0757H16.5V59.0757H15.5ZM15.5 65.0757V66.5757H16.5V65.0757H15.5ZM16 67.0757H17.2708V66.0757H16V67.0757ZM19.8125 67.0757H22.3542V66.0757H19.8125V67.0757ZM24.8958 67.0757H27.4375V66.0757H24.8958V67.0757ZM29.9792 67.0757H32.5208V66.0757H29.9792V67.0757ZM35.0625 67.0757H37.6042V66.0757H35.0625V67.0757ZM40.1458 67.0757H42.6875V66.0757H40.1458V67.0757ZM45.2292 67.0757H46.5V66.0757H45.2292V67.0757ZM46.5 67.0757H47.6607V66.0757H46.5V67.0757ZM49.9821 67.0757H52.3036V66.0757H49.9821V67.0757ZM54.625 67.0757H56.9464V66.0757H54.625V67.0757ZM59.2679 67.0757H61.5893V66.0757H59.2679V67.0757ZM63.9107 67.0757H66.2321V66.0757H63.9107V67.0757ZM68.5536 67.0757H70.875V66.0757H68.5536V67.0757ZM73.1964 67.0757H75.5179V66.0757H73.1964V67.0757ZM77.8393 67.0757H79V66.0757H77.8393V67.0757ZM79.5 66.5757V65.0757H78.5V66.5757H79.5ZM79.5 62.0757V59.0757H78.5V62.0757H79.5ZM79.5 56.0757V54.5757H78.5V56.0757H79.5Z" fill="#5F819B"/>
<rect x="0.2901" y="29.0757" width="24.9134" height="26" rx="2" fill="#004071"/>
<circle cx="11.1715" cy="42.2472" r="6.67152" fill="#004071" stroke="#C8ECFB"/>
<mask id="mask1_1_5175" style="mask-type:alpha" maskUnits="userSpaceOnUse" x="5" y="36" width="13" height="13">
<circle cx="11.1715" cy="42.2472" r="6.17152" fill="#A6DBF1"/>
</mask>
<g mask="url(#mask1_1_5175)">
<path fill-rule="evenodd" clip-rule="evenodd" d="M15.4403 46.1663C15.1039 45.678 14.608 45.3231 14.0385 45.163L12.7155 44.7911V43.8369C13.2748 43.4153 13.6421 42.7519 13.6646 42.0015C13.7428 42.036 13.8291 42.0556 13.92 42.0556C14.2701 42.0556 14.554 41.7708 14.554 41.4195C14.554 41.0681 14.2701 40.7833 13.92 40.7833C13.8298 40.7833 13.7442 40.8025 13.6665 40.8366V40.6561C13.6665 39.3385 12.6021 38.2705 11.2892 38.2705H11.2892C9.97629 38.2705 8.91198 39.3385 8.91198 40.6561V40.8366C8.83426 40.8025 8.74862 40.7833 8.65841 40.7833C8.30829 40.7833 8.02448 41.0681 8.02448 41.4195C8.02448 41.7708 8.30829 42.0556 8.65841 42.0556C8.74934 42.0556 8.83562 42.0361 8.91382 42.0015C8.93635 42.7519 9.30362 43.4153 9.86284 43.8369V44.7911L8.53996 45.163C7.97037 45.3231 7.47448 45.678 7.13811 46.1663L6.21777 47.5024V48.449H16.3607V47.5024L15.4403 46.1663Z" fill="#825237"/>
<path fill-rule="evenodd" clip-rule="evenodd" d="M10.0724 41.4337C10.0724 41.5707 10.1835 41.6818 10.3206 41.6818C10.4576 41.6818 10.5687 41.5707 10.5687 41.4337C10.5687 41.2966 10.4576 41.1855 10.3206 41.1855C10.1835 41.1855 10.0724 41.2966 10.0724 41.4337Z" fill="#0A1E2D"/>
<path fill-rule="evenodd" clip-rule="evenodd" d="M12.1126 41.4337C12.1126 41.5707 12.2237 41.6818 12.3607 41.6818C12.4977 41.6818 12.6088 41.5707 12.6088 41.4337C12.6088 41.2966 12.4977 41.1855 12.3607 41.1855C12.2237 41.1855 12.1126 41.2966 12.1126 41.4337Z" fill="#0A1E2D"/>
<path fill-rule="evenodd" clip-rule="evenodd" d="M11.2895 44.314C10.9964 44.314 10.7158 44.2604 10.4565 44.1631C10.8253 44.3994 11.2632 44.5366 11.7332 44.5366C12.0838 44.5366 12.4163 44.4599 12.7158 44.3232V43.8369C12.3185 44.1364 11.8247 44.314 11.2895 44.314Z" fill="#683B2F"/>
<path d="M8.99629 41.512C9.0044 41.4825 9.00875 41.4513 9.00875 41.4192C9.00875 41.226 8.8521 41.0693 8.65887 41.0693C8.61056 41.0693 8.56453 41.0791 8.52267 41.0968" stroke="#0A1E2D" stroke-width="0.0636147" stroke-linecap="round" stroke-linejoin="round"/>
<path d="M13.5838 41.512C13.5756 41.4825 13.5713 41.4513 13.5713 41.4192C13.5713 41.226 13.728 41.0693 13.9212 41.0693C13.9695 41.0693 14.0155 41.0791 14.0574 41.0968" stroke="#0A1E2D" stroke-width="0.0636147" stroke-linecap="round" stroke-linejoin="round"/>
<path fill-rule="evenodd" clip-rule="evenodd" d="M13.8256 40.7913V40.6562C13.8256 40.1681 13.6884 39.7122 13.4509 39.3249C13.2309 38.966 12.9244 38.6665 12.5607 38.4546C12.187 38.2369 11.7531 38.1116 11.2898 38.1116C10.8265 38.1116 10.3926 38.2369 10.0189 38.4546C9.65525 38.6665 9.34874 38.966 9.12866 39.3249C8.89122 39.7122 8.754 40.1681 8.754 40.6562V40.7913C8.88624 40.8114 9.00501 40.872 9.09722 40.9606C9.38928 40.6665 9.62448 40.3155 9.78449 39.9254C10.2323 40.1683 10.745 40.3063 11.2898 40.3063C11.8346 40.3063 12.3473 40.1683 12.7951 39.9254C12.9551 40.3155 13.1904 40.6665 13.4824 40.9606C13.5746 40.872 13.6934 40.8114 13.8256 40.7913Z" fill="#0A1E2D"/>
<path fill-rule="evenodd" clip-rule="evenodd" d="M13.8256 40.7911V40.656C13.8256 40.1679 13.6884 39.712 13.4509 39.3247C13.2309 38.9657 12.9243 38.6662 12.5607 38.4543C12.1869 38.2366 11.753 38.1113 11.2897 38.1113C10.8264 38.1113 10.3925 38.2366 10.0188 38.4543C9.65511 38.6662 9.34858 38.9657 9.12849 39.3247C8.89104 39.712 8.75381 40.1679 8.75381 40.656V40.7911C8.88606 40.8112 9.00484 40.8718 9.09705 40.9604C9.38912 40.6663 9.62433 40.3153 9.78434 39.9251C10.2322 40.1681 10.7449 40.3061 11.2897 40.3061C11.8346 40.3061 12.3473 40.1681 12.7951 39.9251C12.9551 40.3153 13.1904 40.6663 13.4824 40.9604C13.5746 40.8718 13.6934 40.8112 13.8256 40.7911Z" fill="#0A1E2D"/>
<path d="M11.6792 43.6642C11.8067 43.642 11.9023 43.5787 11.8926 43.5229C11.8829 43.4671 11.7717 43.4399 11.6442 43.4621C11.5166 43.4844 11.4211 43.5477 11.4307 43.6035C11.4404 43.6593 11.5517 43.6865 11.6792 43.6642Z" fill="#F77C2D" fill-opacity="0.21"/>
<path d="M11.4812 42.4043C11.4275 42.5062 11.3078 42.4597 11.2059 42.4007C11.1039 42.3417 11.0467 42.247 11.0789 42.1915C11.1111 42.1343 11.1898 42.1307 11.3238 42.1969C11.4311 42.247 11.5241 42.3203 11.4812 42.4043Z" fill="#F77C2D" fill-opacity="0.21"/>
<path d="M11.2472 41.3086L11.0594 42.1739C11.0433 42.2472 11.0755 42.3223 11.1381 42.3616L11.3062 42.4653" stroke="#0A1E2D" stroke-width="0.0893915" stroke-miterlimit="10" stroke-linecap="round" stroke-linejoin="round"/>
<path d="M10.7855 43.1542C10.7855 43.1542 11.2637 43.3396 11.8824 43.0787" stroke="#0A1E2D" stroke-width="0.104657" stroke-miterlimit="10" stroke-linecap="round" stroke-linejoin="round"/>
<path fill-rule="evenodd" clip-rule="evenodd" d="M16.3607 47.5023L15.4403 46.1662C15.104 45.678 14.6081 45.323 14.0385 45.1629L12.7156 44.791C12.7156 45.5815 12.077 46.2224 11.2892 46.2224C10.5015 46.2224 9.86288 45.5815 9.86288 44.791L8.53996 45.1629C7.97037 45.323 7.47448 45.678 7.13811 46.1662L6.21777 47.5023V55.0757H16.3607V47.5023Z" fill="#F18269"/>
</g>
<rect x="31.0001" y="29.0757" width="23.9172" height="26" rx="2" fill="#004071"/>
<circle cx="54" cy="32.0757" r="4.16667" fill="#05CA77"/>
<path d="M55.6629 30.8257C55.5567 30.8257 55.4454 30.8615 55.3641 30.9428L53.8183 32.5053C53.7112 32.6128 53.6037 32.5928 53.5196 32.4665L53.1042 31.8415C52.9767 31.6498 52.7104 31.5965 52.5196 31.724C52.3287 31.8519 52.2754 32.1186 52.4025 32.3098L52.8183 32.9348C53.1933 33.499 53.925 33.5707 54.4029 33.0915L55.9617 31.5419C56.1237 31.379 56.1237 31.1057 55.9617 30.9428C55.8804 30.8615 55.7692 30.8257 55.6629 30.8257Z" fill="#071F42"/>
<circle cx="43.1715" cy="42.2472" r="6.67152" fill="#004071" stroke="#C8ECFB"/>
<mask id="mask2_1_5175" style="mask-type:alpha" maskUnits="userSpaceOnUse" x="37" y="36" width="13" height="13">
<circle cx="43.1715" cy="42.2472" r="6.17152" fill="#A6DBF1"/>
</mask>
<g mask="url(#mask2_1_5175)">
<path fill-rule="evenodd" clip-rule="evenodd" d="M48.1275 47.0234C47.7271 46.4421 47.1368 46.0196 46.4587 45.829L44.8838 45.3863V44.2503C45.5496 43.7485 45.9868 42.9587 46.0137 42.0653C46.1067 42.1065 46.2094 42.1298 46.3177 42.1298C46.7345 42.1298 47.0724 41.7908 47.0724 41.3725C47.0724 40.9543 46.7345 40.6152 46.3177 40.6152C46.2103 40.6152 46.1083 40.638 46.0159 40.6786V40.4637C46.0159 38.8953 44.7488 37.6238 43.1858 37.6238H43.1858C41.6228 37.6238 40.3558 38.8953 40.3558 40.4637V40.6786C40.2633 40.638 40.1613 40.6152 40.0539 40.6152C39.6371 40.6152 39.2993 40.9543 39.2993 41.3725C39.2993 41.7908 39.6371 42.1298 40.0539 42.1298C40.1622 42.1298 40.2649 42.1065 40.358 42.0653C40.3848 42.9587 40.822 43.7485 41.4878 44.2503V45.3863L39.9129 45.829C39.2348 46.0196 38.6445 46.4421 38.2441 47.0234L37.1484 48.6139V49.7408H49.2232V48.6139L48.1275 47.0234Z" fill="#985E4F"/>
<path fill-rule="evenodd" clip-rule="evenodd" d="M43.1861 44.8182C42.8372 44.8182 42.5032 44.7545 42.1945 44.6386C42.6335 44.92 43.1548 45.0833 43.7144 45.0833C44.1317 45.0833 44.5275 44.9919 44.8841 44.8292V44.2503C44.4112 44.6068 43.8233 44.8182 43.1861 44.8182Z" fill="#683B2F"/>
<path d="M40.4562 41.483C40.4659 41.4478 40.4711 41.4108 40.4711 41.3725C40.4711 41.1425 40.2846 40.956 40.0545 40.956C39.997 40.956 39.9422 40.9677 39.8924 40.9887" stroke="#0A1E2D" stroke-width="0.0922939" stroke-linecap="round" stroke-linejoin="round"/>
<path d="M45.9183 41.483C45.9086 41.4478 45.9035 41.4108 45.9035 41.3725C45.9035 41.1425 46.09 40.956 46.32 40.956C46.3775 40.956 46.4323 40.9677 46.4821 40.9887" stroke="#0A1E2D" stroke-width="0.0922939" stroke-linecap="round" stroke-linejoin="round"/>
<path fill-rule="evenodd" clip-rule="evenodd" d="M43.9403 43.077C43.9403 43.4952 43.6025 43.8343 43.1857 43.8343C42.7688 43.8343 42.431 43.4952 42.431 43.077H43.9403Z" fill="#071F42"/>
<path fill-rule="evenodd" clip-rule="evenodd" d="M44.7351 41.4864C44.7351 41.6537 44.5994 41.7893 44.4321 41.7893C44.2648 41.7893 44.1292 41.6537 44.1292 41.4864C44.1292 41.3191 44.2648 41.1835 44.4321 41.1835C44.5994 41.1835 44.7351 41.3191 44.7351 41.4864Z" fill="#0A1E2D"/>
<path fill-rule="evenodd" clip-rule="evenodd" d="M42.2444 41.4864C42.2444 41.6537 42.1088 41.7893 41.9415 41.7893C41.7742 41.7893 41.6386 41.6537 41.6386 41.4864C41.6386 41.3191 41.7742 41.1835 41.9415 41.1835C42.1088 41.1835 42.2444 41.3191 42.2444 41.4864Z" fill="#0A1E2D"/>
<path d="M43.1855 41.1835L43.5642 42.4709L43.0341 42.5466" stroke="#0A1E2D" stroke-width="0.0922939" stroke-linecap="round" stroke-linejoin="round"/>
<path fill-rule="evenodd" clip-rule="evenodd" d="M42.2924 39.3069C41.8997 39.9802 41.3053 40.5198 40.5929 40.8448C40.467 40.715 40.2951 40.6311 40.1037 40.6182L40.2028 39.9885V39.9884C40.2659 39.587 40.4078 39.2119 40.6117 38.8792C40.8001 38.572 41.0418 38.3017 41.3236 38.0801C41.4337 37.9934 41.5498 37.9141 41.6715 37.8432C42.0131 37.6442 42.3969 37.5104 42.8063 37.4588C42.9302 37.4432 43.0563 37.4348 43.1844 37.4348C43.7359 37.4348 44.2524 37.584 44.6974 37.8432C45.1303 38.0954 45.4951 38.4519 45.7571 38.8792C45.9611 39.2119 46.1029 39.587 46.1661 39.9885L46.2651 40.6175C46.065 40.631 45.8867 40.7232 45.7594 40.863C44.4185 40.7587 43.2086 40.1859 42.2924 39.3069ZM41.487 44.2498C40.8218 43.7478 40.384 42.9589 40.3572 42.0658C40.2641 42.107 40.1614 42.1303 40.0531 42.1303C39.9898 42.1303 39.9287 42.1216 39.8699 42.1069L39.4116 45.0185H41.487V44.2498ZM46.3173 42.1303C46.209 42.1303 46.1063 42.107 46.0132 42.0658C45.9863 42.9589 45.5485 43.7479 44.8834 44.2498V45.0185H46.9587L46.5004 42.1069C46.4417 42.1216 46.3806 42.1303 46.3173 42.1303Z" fill="#0A1E2D"/>
<path fill-rule="evenodd" clip-rule="evenodd" d="M49.2231 48.6144L48.1274 47.0238C47.727 46.4426 47.1367 46.02 46.4585 45.8294L44.8837 45.3867C44.8837 46.3277 44.1235 47.0906 43.1857 47.0906C42.2479 47.0906 41.4877 46.3277 41.4877 45.3867L39.9128 45.8294C39.2347 46.02 38.6444 46.4426 38.2439 47.0238L37.1483 48.6144V49.7413H49.2231V48.6144Z" fill="#50C2BF"/>
</g>
<rect x="61.0787" y="29.0757" width="24.9132" height="26" rx="2" fill="#004071"/>
<circle cx="64.0001" cy="53.0757" r="4" fill="#E9B264"/>
<path fill-rule="evenodd" clip-rule="evenodd" d="M65.2033 52.5011C65.3768 52.3275 65.3768 52.0461 65.2033 51.8725C65.0297 51.699 64.7483 51.699 64.5747 51.8725L64.0001 52.4472L63.4255 51.8725C63.2519 51.699 62.9705 51.699 62.797 51.8725C62.6234 52.0461 62.6234 52.3275 62.797 52.5011L63.3716 53.0757L62.797 53.6503C62.6234 53.8239 62.6234 54.1053 62.797 54.2789C62.9705 54.4524 63.2519 54.4524 63.4255 54.2789L64.0001 53.7042L64.5747 54.2789C64.7483 54.4524 65.0297 54.4524 65.2033 54.2789C65.3768 54.1053 65.3768 53.8239 65.2033 53.6503L64.6286 53.0757L65.2033 52.5011Z" fill="#452B06"/>
<circle cx="78" cy="42.0757" r="6.5" fill="#004071" stroke="#C8ECFB"/>
<mask id="mask3_1_5175" style="mask-type:alpha" maskUnits="userSpaceOnUse" x="72" y="36" width="12" height="13">
<circle cx="78" cy="42.0757" r="6" fill="#C4C4C4"/>
</mask>
<g mask="url(#mask3_1_5175)">
<path fill-rule="evenodd" clip-rule="evenodd" d="M78.6821 40.4034C79.6415 40.4034 80.4193 39.6148 80.4193 38.6421C80.4193 37.6694 79.6415 36.8808 78.6821 36.8808C77.7226 36.8808 76.9449 37.6694 76.9449 38.6421C76.9449 39.6148 77.7226 40.4034 78.6821 40.4034Z" fill="#18233D"/>
<path fill-rule="evenodd" clip-rule="evenodd" d="M78.4303 41.8634C79.3222 41.8634 80.0452 41.1304 80.0452 40.2261C80.0452 39.3219 79.3222 38.5889 78.4303 38.5889C77.5384 38.5889 76.8154 39.3219 76.8154 40.2261C76.8154 41.1304 77.5384 41.8634 78.4303 41.8634Z" fill="#E5E9F3"/>
<path fill-rule="evenodd" clip-rule="evenodd" d="M76.0436 44.9254C76.0436 44.9254 76.4249 46.1131 76.2342 47.2885C76.0436 48.464 75.7807 48.7379 75.375 48.8814L77.5631 52.0847L79.8876 48.7963C79.8876 48.7963 78.7404 48.7305 78.7404 47.3913C78.7404 46.0521 78.9689 44.4238 78.9689 44.4238L76.0436 44.9254Z" fill="#B77868"/>
<path fill-rule="evenodd" clip-rule="evenodd" d="M75.2306 44.5211C74.4497 43.2991 74.1241 40.6673 75.8245 40.1595C77.6399 37.9811 80.0904 38.9086 80.5827 40.7598C81.0751 42.6109 80.4662 44.8791 79.0411 45.1929C77.6159 45.5068 76.0115 45.7431 75.2306 44.5211Z" fill="#18233D"/>
<path fill-rule="evenodd" clip-rule="evenodd" d="M78.8479 45.585C78.8217 45.7954 78.79 46.2715 78.7376 47.1123C78.6716 48.1709 79.2059 48.5165 79.2059 48.5165C79.2059 48.5165 76.5599 47.6236 76.3007 47.0349C76.3126 46.6271 76.3 46.2562 76.2627 45.9224L78.8479 45.585Z" fill="#995949"/>
<path fill-rule="evenodd" clip-rule="evenodd" d="M75.4037 43.1389C75.8705 42.8644 76.2598 42.2688 76.5717 41.3521C76.3897 42.2578 78.3723 43.1681 79.8514 43.3307C79.9001 43.3159 79.9516 43.3079 80.0049 43.3079C80.3057 43.3079 80.5495 43.5619 80.5495 43.8752C80.5495 44.1885 80.3057 44.4425 80.0049 44.4425C79.8647 44.4425 79.7369 44.3873 79.6404 44.2966C79.1992 45.6268 78.2714 47.3341 77.2292 47.1744C76.4758 47.0589 75.8846 46.0865 75.4556 44.2573C75.4186 44.2655 75.3803 44.2699 75.3409 44.2699C75.0402 44.2699 74.7964 44.0159 74.7964 43.7025C74.7964 43.3892 75.0402 43.1352 75.3409 43.1352C75.3621 43.1352 75.3831 43.1365 75.4037 43.1389Z" fill="#B77868"/>
<path d="M77.5073 45.1234C77.5523 45.1396 77.5756 45.1891 77.5594 45.2341C77.5433 45.2791 77.4937 45.3024 77.4487 45.2862L76.936 45.1017L76.9669 45.0196C77.2338 44.3097 77.3321 43.8229 77.2668 43.5722C77.2548 43.5259 77.2825 43.4787 77.3288 43.4667C77.375 43.4546 77.4222 43.4824 77.4343 43.5286C77.5086 43.8142 77.4154 44.3002 77.1594 44.9982L77.5073 45.1234Z" fill="#18233D"/>
<path d="M77.9944 43.1666C77.9514 43.1874 77.8997 43.1695 77.8788 43.1265C77.858 43.0835 77.8759 43.0317 77.9189 43.0109C78.2644 42.8434 78.6185 42.8756 78.9698 43.1042C79.0099 43.1303 79.0212 43.1839 78.9952 43.2239C78.9691 43.264 78.9155 43.2753 78.8755 43.2493C78.5735 43.0528 78.2836 43.0264 77.9944 43.1666Z" fill="#18233D"/>
<path d="M76.0553 43.2108C76.0148 43.236 75.9614 43.2236 75.9362 43.1831C75.9109 43.1425 75.9233 43.0892 75.9639 43.0639C76.2901 42.8607 76.6456 42.8553 77.0187 43.0454C77.0612 43.0671 77.0781 43.1192 77.0564 43.1618C77.0347 43.2044 76.9826 43.2213 76.9401 43.1996C76.6195 43.0362 76.3285 43.0407 76.0553 43.2108Z" fill="#18233D"/>
<path fill-rule="evenodd" clip-rule="evenodd" d="M78.3799 43.7054C78.4635 43.7054 78.5313 43.6367 78.5313 43.5519C78.5313 43.4672 78.4635 43.3984 78.3799 43.3984C78.2963 43.3984 78.2285 43.4672 78.2285 43.5519C78.2285 43.6367 78.2963 43.7054 78.3799 43.7054Z" fill="#18233D"/>
<path fill-rule="evenodd" clip-rule="evenodd" d="M76.5616 43.7054C76.6452 43.7054 76.713 43.6367 76.713 43.5519C76.713 43.4672 76.6452 43.3984 76.5616 43.3984C76.4779 43.3984 76.4102 43.4672 76.4102 43.5519C76.4102 43.6367 76.4779 43.7054 76.5616 43.7054Z" fill="#18233D"/>
<path fill-rule="evenodd" clip-rule="evenodd" d="M76.916 45.6182L77.8398 45.5474C77.8398 45.5474 77.7085 46.0185 77.3779 46.0185C77.0472 46.0185 76.916 45.6182 76.916 45.6182Z" fill="#071F42"/>
<path d="M79.8701 44.0942C79.8248 44.1095 79.7757 44.0852 79.7604 44.04C79.7451 43.9947 79.7694 43.9456 79.8147 43.9303L80.1175 43.828C80.1628 43.8127 80.2119 43.837 80.2272 43.8822C80.2425 43.9275 80.2182 43.9766 80.1729 43.9919L79.8701 44.0942Z" fill="#18233D"/>
<path d="M75.3745 43.8896C75.4198 43.9049 75.4689 43.8806 75.4842 43.8354C75.4995 43.7901 75.4752 43.741 75.4299 43.7257L75.1271 43.6234C75.0819 43.6081 75.0328 43.6324 75.0175 43.6776C75.0022 43.7229 75.0265 43.772 75.0717 43.7873L75.3745 43.8896Z" fill="#18233D"/>
<path d="M77.1177 41.0449C77.1177 41.0449 77.921 42.4588 79.641 42.7845" stroke="#071F42" stroke-width="0.322875" stroke-linecap="round"/>
</g>
</g>
<defs>
<linearGradient id="paint0_linear_1_5175" x1="43" y1="0" x2="43" y2="86" gradientUnits="userSpaceOnUse">
<stop stop-color="#D9F4FF"/>
<stop offset="1" stop-color="#9CD6EE"/>
</linearGradient>
<linearGradient id="paint1_linear_1_5175" x1="43.0001" y1="0" x2="43.0001" y2="86" gradientUnits="userSpaceOnUse">
<stop stop-color="#D9F4FF"/>
<stop offset="1" stop-color="#9CD6EE"/>
</linearGradient>
</defs>
</svg>
