<svg width="86" height="87" viewBox="0 0 86 87" fill="none" xmlns="http://www.w3.org/2000/svg">
<ellipse cx="42.8511" cy="43.0386" rx="42.8511" ry="43" fill="#D3F1FF"/>
<mask id="mask0_1_5131" style="mask-type:alpha" maskUnits="userSpaceOnUse" x="0" y="0" width="86" height="87">
<path d="M42.8511 86.0386C66.5171 86.0386 85.7021 66.7868 85.7021 43.0386C85.7021 19.2903 66.5171 0.0385742 42.8511 0.0385742C19.1851 0.0385742 0 19.2903 0 43.0386C0 66.7868 19.1851 86.0386 42.8511 86.0386Z" fill="#39AFE0"/>
</mask>
<g mask="url(#mask0_1_5131)">
<path d="M51.5193 70.8418C51.5884 68.1703 51.6312 65.4966 51.655 62.8229V62.7953C51.6725 60.7725 51.6765 58.7496 51.6677 56.7268C51.6653 55.9918 51.6614 55.2561 51.655 54.5211C51.6296 51.4657 51.5733 48.4111 51.4892 45.3558C51.4852 45.2361 51.3924 45.0961 51.2528 45.0729C48.1871 44.5555 45.0532 44.4598 41.9613 44.8073C41.774 44.8269 41.6519 44.9256 41.6392 45.1019C41.5701 45.8586 41.6177 46.6154 41.7701 47.3569C41.7828 49.6294 41.8066 51.9025 41.8431 54.1728C41.8819 56.7268 41.9375 59.28 42.0089 61.8318C42.0755 64.2319 42.239 68.9974 42.4151 73.7984C42.4214 73.9479 42.4262 74.0973 42.4326 74.2468C42.4952 75.949 42.5595 77.646 42.6214 79.2343C42.6555 80.1311 42.6904 80.9938 42.7245 81.802C42.7436 82.307 42.7674 82.791 42.7848 83.2488C42.8642 85.1599 42.9356 86.6321 42.9824 87.3337C42.9935 87.5064 43.122 87.6108 43.3045 87.6283C43.4592 87.6442 43.6187 87.658 43.7821 87.6718C44.3708 87.7168 45.0159 87.7443 45.6823 87.7567H45.8069C47.4167 87.7843 49.1566 87.7255 50.6141 87.6544C50.7815 87.6464 50.9473 87.6384 51.1068 87.6304C51.1885 87.6246 51.2702 87.6203 51.3496 87.6167C51.5321 87.6065 51.6638 87.489 51.6717 87.3221C51.678 87.2241 51.6828 87.1255 51.6891 87.0275C51.9692 81.7012 51.3861 76.1652 51.5193 70.8418Z" fill="#004071"/>
<path d="M67.7466 73.7177C67.753 72.1432 67.7641 70.4897 67.7744 68.7795C67.7768 68.6475 67.7768 68.5161 67.7768 68.3841C67.7879 66.9098 67.8006 65.3955 67.8133 63.8566C67.8545 58.8103 67.9037 53.5 67.9402 48.4675C68.0283 36.794 68.0545 26.5999 67.768 24.5828C67.7657 24.5712 67.7657 24.5589 67.7641 24.5495C67.7577 24.5125 67.7403 24.4769 67.7125 24.4472C67.6498 24.3761 67.5427 24.3333 67.4523 24.3333C66.3042 24.3253 65.1688 24.3253 64.0493 24.3333H63.935C62.7782 24.3412 61.6349 24.3586 60.5083 24.3906C60.4162 24.3928 60.3234 24.3964 60.229 24.4007C59.7799 24.4123 59.3348 24.4283 58.8897 24.4457C58.8468 24.4457 58.8143 24.4733 58.7842 24.4929C58.6033 24.4631 58.3954 24.556 58.393 24.7722C58.3819 26.6362 58.3779 28.5016 58.3756 30.3655C58.3732 31.0889 58.3732 31.8109 58.3732 32.5321C58.3732 32.6815 58.3732 32.8332 58.3756 32.9819C58.3756 34.5194 58.3779 36.0568 58.3867 37.5921C58.3867 37.8519 58.389 38.1094 58.3906 38.367C58.393 39.2261 58.397 40.083 58.4033 40.9406C58.4033 41.0015 58.4033 41.0625 58.4057 41.1212C58.416 42.8023 58.4319 44.4849 58.4533 46.166C58.462 47.1644 58.4747 48.1613 58.4874 49.1604C58.4898 49.3882 58.4938 49.6182 58.4977 49.8468C58.5557 54.2096 58.6398 58.5695 58.7469 62.9322C58.7469 63.0324 58.7493 63.1347 58.7532 63.2348C58.8008 65.2344 58.854 67.2355 58.9103 69.2352C58.9143 69.3259 58.9167 69.4158 58.919 69.5065C58.9317 69.9506 58.9444 70.3968 58.9579 70.8416C58.9643 71.0128 58.969 71.1855 58.9754 71.3567C58.9968 72.0859 59.0206 72.8151 59.0444 73.545C59.0634 74.1603 59.0857 74.7755 59.1047 75.3908C59.1222 75.8668 59.1388 76.3406 59.1563 76.8158C59.1777 77.4688 59.2015 78.1233 59.2253 78.7755C59.3284 81.6023 59.4403 84.4298 59.5609 87.2544C59.5696 87.4213 59.7053 87.5374 59.883 87.549C60.1044 87.5628 60.3258 87.5787 60.5455 87.5925C60.6082 87.5961 60.6701 87.6005 60.7328 87.6041C63.0607 87.7558 65.2624 87.8733 67.6189 87.602C67.7546 87.5882 67.864 87.4467 67.8553 87.319C67.7395 85.2308 67.7197 80.4857 67.7435 74.4831C67.7442 74.2306 67.7442 73.9752 67.7466 73.7177Z" fill="#004071"/>
<path d="M34.7613 86.3301C34.7502 85.9883 34.7399 85.6458 34.7288 85.3041C34.7073 84.6177 34.6859 83.9335 34.6645 83.2479C34.6518 82.8249 34.6367 82.4026 34.624 81.9781C34.6066 81.447 34.5915 80.9145 34.5748 80.3819C34.5725 80.3094 34.5709 80.2361 34.5685 80.1621C34.5574 79.8537 34.5494 79.5446 34.5383 79.2363L34.0353 63.1862C34.0266 62.9032 34.0377 62.5883 33.9687 62.3133C33.8957 62.0246 33.7346 61.7764 33.3689 61.6509C33.042 61.5392 32.6635 61.5326 32.3176 61.4993C31.9153 61.4601 31.5115 61.4245 31.1076 61.397C30.6324 61.3636 30.1571 61.336 29.6803 61.3186C29.6351 61.3164 29.5899 61.315 29.543 61.3128C29.2336 61.3012 28.9242 61.2932 28.6124 61.2889C27.8087 61.2751 27.0018 61.2809 26.198 61.3085C26.0155 61.3164 25.8886 61.4405 25.8759 61.603C25.8585 61.8229 25.8418 62.0434 25.8283 62.2633C25.8259 62.2771 25.8243 62.293 25.8243 62.3083C25.6522 64.7577 25.5919 67.213 25.6331 69.6669C25.6307 69.9738 25.6292 70.2785 25.6307 70.5847C25.6284 70.6493 25.6284 70.7124 25.6284 70.7777C25.6196 72.9007 25.6395 75.0244 25.6887 77.1474C25.7275 78.9185 25.7855 80.6881 25.8624 82.4577C25.933 84.1207 26.0235 85.7844 26.129 87.4474C26.1401 87.6107 26.2686 87.7362 26.4511 87.742C27.915 87.7812 29.3788 87.7696 30.8411 87.6985C31.5639 87.6629 32.2859 87.6157 33.0063 87.5548C33.5133 87.5113 34.3241 87.5628 34.6312 87.0984C34.7843 86.8648 34.7676 86.5934 34.7613 86.3301Z" fill="#004071"/>
<path d="M33.3683 61.6494C33.0414 61.5377 32.663 61.5312 32.3171 61.4978C31.9148 61.4586 31.5109 61.4231 31.1071 61.3955C30.6318 61.3621 30.1566 61.3346 29.6797 61.3171C29.6345 61.315 29.5893 61.3135 29.5424 61.3113C29.233 61.2997 28.9236 61.2917 28.6118 61.2874C27.808 61.2736 27.0011 61.2794 26.1974 61.307C26.0149 61.315 25.8879 61.439 25.8752 61.6016C25.8578 61.8214 25.8411 62.042 25.8276 62.2618C25.8641 62.211 25.903 62.1617 25.9395 62.1102C25.9006 62.1748 25.8641 62.2422 25.8237 62.3068C25.6515 64.7563 25.5912 67.2116 25.6324 69.6654C25.6301 69.9723 25.6285 70.2771 25.6301 70.5832C26.1783 69.9128 26.7155 69.2366 27.2399 68.5524C27.3042 68.4878 27.3708 68.4225 27.4359 68.3558C27.3478 68.6192 27.2598 68.8804 27.1654 69.1423C26.6687 69.6988 26.1569 70.243 25.6285 70.7762C25.6198 72.8992 25.6396 75.0229 25.6888 77.1459C26.6734 75.8624 27.5938 74.5354 28.4428 73.1728C29.5861 71.3349 30.6009 69.4274 31.4824 67.4713C31.5879 67.2645 31.691 67.0585 31.7918 66.8502C32.5138 65.574 33.17 64.2687 33.7246 62.9221C33.8023 62.7313 33.8769 62.539 33.9507 62.346C33.9571 62.3344 33.9634 62.322 33.9698 62.3104C33.8952 62.0231 33.7333 61.775 33.3683 61.6494ZM28.6705 63.0019C28.2452 63.4793 27.8191 63.9596 27.3915 64.4392C27.5724 64.1345 27.7461 63.8298 27.9159 63.5214C28.1825 63.1913 28.4555 62.8626 28.7284 62.5368C28.7117 62.6913 28.6919 62.8466 28.6705 63.0019ZM29.4536 61.8221C29.4576 61.7728 29.4639 61.7242 29.4687 61.6763C29.5655 61.5646 29.6646 61.4564 29.763 61.3462C29.6575 61.5036 29.5543 61.6632 29.4536 61.8221Z" fill="#3A49B6"/>
<path d="M51.5201 70.8408C51.5891 68.1693 51.632 65.4956 51.6558 62.822C51.6495 62.8416 51.6431 62.8633 51.6368 62.8829C51.6431 62.8532 51.6495 62.8242 51.6558 62.7944C51.6733 60.7715 51.6772 58.7487 51.6685 56.7258C51.578 57.019 51.4876 57.3114 51.3995 57.6045C50.2237 60.6496 49.2843 63.7739 48.5401 66.9308C47.1984 72.6322 46.4701 78.4418 46.0353 84.255C45.9472 85.4209 45.8742 86.5884 45.8076 87.7565C47.4174 87.7841 49.1574 87.7253 50.6148 87.6542C50.9179 86.0362 51.1909 84.4124 51.4424 82.7843C51.4249 83.2718 51.4083 83.7594 51.3908 84.247C51.2964 85.3752 51.202 86.5042 51.1068 87.6303C51.1885 87.6245 51.2702 87.6201 51.3495 87.6165C51.532 87.6063 51.6637 87.4888 51.6717 87.3219C51.678 87.224 51.6828 87.1253 51.6891 87.0273C51.97 81.7003 51.3868 76.1643 51.5201 70.8408ZM48.4203 80.8202C48.3322 81.7438 48.2481 82.6703 48.1664 83.594C48.3187 81.4471 48.5123 79.3023 48.7535 77.1612C48.786 77.0001 48.8178 76.8369 48.8479 76.6758C48.6932 78.0558 48.5536 79.438 48.4203 80.8202ZM49.6112 78.1066C49.712 77.3636 49.8175 76.6221 49.9357 75.8813C50.1444 74.5601 50.3808 73.241 50.6387 71.9256C50.2975 73.9861 49.9555 76.0467 49.6112 78.1066ZM50.3102 70.3533C50.3443 70.1131 50.3792 69.8758 50.4157 69.6379C50.5426 69.1271 50.6736 68.6156 50.8092 68.1062C50.6347 68.8528 50.4673 69.6023 50.3102 70.3533Z" fill="#398CCC"/>
<path d="M67.7681 24.5828C67.7617 24.6808 67.7554 24.7816 67.7466 24.8796C67.7355 24.7338 67.7252 24.5908 67.7125 24.4472C67.6498 24.3761 67.5427 24.3333 67.4523 24.3333C66.3042 24.3253 65.1688 24.3253 64.0493 24.3333C63.9866 24.7896 63.9223 25.2453 63.8581 25.7017C63.862 25.6465 63.8668 25.5936 63.8692 25.5384C63.8946 25.1372 63.9168 24.7359 63.9358 24.3333C62.779 24.3412 61.6357 24.3586 60.5091 24.3906C60.4702 24.646 60.4337 24.8999 60.3948 25.1553C60.3242 25.1219 60.2377 25.1161 60.156 25.1357C60.1798 24.8898 60.2036 24.646 60.229 24.4007C59.7799 24.4123 59.3348 24.4283 58.8897 24.4457C58.8468 24.4457 58.8143 24.4733 58.7842 24.4929C58.6033 24.4631 58.3954 24.556 58.393 24.7722C58.3819 26.6362 58.3779 28.5016 58.3756 30.3655C58.3732 31.0889 58.3732 31.8109 58.3732 32.5321C58.3732 32.6815 58.3732 32.8332 58.3756 32.9819C58.3756 34.5194 58.3779 36.0568 58.3867 37.5921C58.3867 37.8519 58.389 38.1094 58.3906 38.367C58.393 39.2261 58.397 40.0829 58.4033 40.9406C58.4033 41.0015 58.4033 41.0625 58.4057 41.1212C58.416 42.8023 58.4319 44.4849 58.4533 46.166C58.5009 45.7844 58.5461 45.4049 58.5866 45.024C58.5779 45.6335 58.5691 46.2408 58.5628 46.8502L58.52 47.2769C58.5136 47.332 58.5287 47.3813 58.5541 47.4227C58.5501 47.7608 58.5454 48.1011 58.5414 48.4414C58.5374 48.7954 58.5326 49.1488 58.5287 49.5029C58.5176 49.6168 58.5096 49.7329 58.4985 49.8468C58.5565 54.2096 58.6405 58.5694 58.7477 62.9322C58.7477 63.0324 58.75 63.1347 58.754 63.2348C58.8016 65.2344 58.8548 67.2355 58.9111 69.2352C59.0785 68.9522 59.2404 68.6649 59.3967 68.3783C59.3967 68.4175 59.3991 68.4566 59.4006 68.4965C59.2435 68.8346 59.0825 69.1706 58.919 69.5072C58.9317 69.9513 58.9444 70.3975 58.9579 70.8423C59.1103 70.5455 59.257 70.2488 59.403 69.9498C59.3689 70.1465 59.334 70.3431 59.2975 70.5397C59.192 70.8132 59.0849 71.086 58.9754 71.3574C58.9968 72.0866 59.0206 72.8158 59.0444 73.5457C59.0634 74.161 59.0857 74.7762 59.1047 75.3915C62.4347 70.2821 64.7221 64.63 66.1733 58.8365C67.031 55.4198 67.5943 51.956 67.9402 48.4697C68.0275 36.7933 68.0537 26.5999 67.7681 24.5828ZM64.7856 29.1945C64.8046 29.1118 64.8269 29.0312 64.8459 28.9485C64.788 29.5224 64.7213 30.0949 64.646 30.6645C64.6959 30.1754 64.7428 29.6842 64.7856 29.1945ZM64.2143 28.3594C64.1993 28.5364 64.1842 28.7134 64.1691 28.8919C64.1429 28.884 64.1175 28.8803 64.0914 28.8803C64.1326 28.7055 64.1731 28.5321 64.2143 28.3594ZM62.6616 63.1862C62.6918 63.1078 62.7219 63.0309 62.7544 62.9525C62.6703 63.4575 62.5886 63.9632 62.5069 64.4682C62.5045 64.482 62.5069 64.4936 62.5069 64.5052C62.1673 65.5276 61.8039 66.5441 61.4167 67.5526C61.3263 67.718 61.2319 67.8827 61.1375 68.046C61.6841 66.436 62.1911 64.8158 62.6616 63.1862ZM60.5741 58.7842C60.5852 58.7864 60.5955 58.7878 60.6043 58.79C60.4837 59.4546 60.3678 60.1171 60.2536 60.7838C60.202 60.9413 60.1528 61.0987 60.1012 61.2555C60.2671 60.432 60.4242 59.6077 60.5741 58.7842ZM59.3229 38.8335C59.334 38.2437 59.3419 37.6523 59.3531 37.0625C59.3832 36.9645 59.411 36.8636 59.4411 36.7657C59.403 37.4557 59.3641 38.1457 59.3229 38.8335ZM62.5973 67.5032C61.6278 69.7699 60.4884 71.9778 59.1809 74.0971C59.8021 72.8898 60.3829 71.6672 60.9224 70.4309C62.1562 68.0931 63.2162 65.6828 64.1215 63.2254C64.2072 63.0795 64.2873 62.9322 64.3667 62.7849C63.8462 64.3775 63.2614 65.952 62.5973 67.5032ZM65.487 32.4936C65.0093 34.2966 64.5515 36.1047 64.1112 37.9157C64.1286 37.603 64.1477 37.2924 64.1628 36.9819C64.4381 35.7572 64.6848 34.5281 64.8983 33.2961L65.702 30.3235C65.6369 31.0468 65.5663 31.7702 65.487 32.4936ZM66.0503 24.445C66.0241 25.2866 65.99 26.1297 65.9432 26.9714C65.8123 27.459 65.6806 27.9444 65.5497 28.4319C65.6353 27.4669 65.698 26.5012 65.7306 25.5341C65.8361 25.1524 65.9416 24.7729 66.0511 24.392V24.445H66.0503ZM67.5181 45.8149C67.2254 48.2056 66.8453 50.5861 66.3574 52.9493C66.4153 52.0133 66.4645 51.0773 66.5097 50.1399C66.5121 50.1298 66.5137 50.1203 66.5137 50.1102C66.9524 48.3899 67.3047 46.65 67.5776 44.8985C67.5594 45.2032 67.538 45.5101 67.5181 45.8149Z" fill="#50C2BF"/>
<path d="M37.0687 52.7077C34.4663 52.4225 31.8306 53.6342 30.3453 55.5751C29.9177 56.1337 29.5972 56.7577 29.3941 57.4136C29.2806 57.7793 29.9034 57.9353 30.0161 57.5703C30.8611 54.8372 33.9966 52.9609 37.0687 53.2976C37.4796 53.3425 37.4757 52.7527 37.0687 52.7077Z" fill="#F4F3E9"/>
<path d="M36.9631 39.1694C36.6548 38.6506 36.2339 37.4273 35.9914 36.8614C35.744 36.2875 35.5115 35.7034 35.289 35.1157C34.9501 34.2153 34.6368 33.3011 34.3341 32.3847C34.1861 31.9385 34.0394 31.4901 33.8927 31.0417C33.8454 30.8981 33.7223 30.7842 33.5825 30.8349C33.2524 30.9605 31.47 32.0263 31.5428 32.3136C31.6373 32.6953 32.7233 36.1591 32.8905 36.5697C32.9409 36.7272 32.99 36.8846 33.0404 37.0413C32.3397 36.2411 31.6795 35.39 30.9615 34.6115C30.1751 33.7582 29.3091 33.0036 28.3859 32.3608C26.5315 31.0715 24.4209 30.0332 22.2867 29.6712C20.7064 29.4034 19.1466 29.3367 17.6273 29.4999C15.0467 29.7771 12.5824 30.7152 10.3301 32.4544C8.3358 33.9955 6.4223 36.6575 5.03597 38.9321C4.97194 39.0366 4.99867 39.2057 5.07452 39.2898C5.19761 39.4277 5.32381 39.5612 5.45374 39.6911C5.49414 39.7324 5.53642 39.7738 5.57807 39.8151C5.8056 40.0372 6.04121 40.2476 6.28366 40.4442C6.33091 40.4834 6.37816 40.5226 6.42541 40.5581C6.61377 40.7097 6.8096 40.8512 7.00667 40.9826C7.02718 40.9985 7.04707 41.0123 7.06759 41.0239C7.17017 41.0928 7.27274 41.1596 7.3778 41.2227C7.44183 41.2619 7.50401 41.2662 7.55996 41.2481C7.57488 41.2423 7.59166 41.2365 7.6072 41.2263C7.61715 41.2343 7.62896 41.2423 7.64077 41.2481C7.74832 41.3112 7.8882 41.2989 7.96591 41.1422C8.73243 39.5888 9.69104 38.1086 10.8125 36.8563C10.8225 36.8447 10.8324 36.8324 10.843 36.8229C11.6854 35.887 12.6204 35.0794 13.6343 34.462C14.2945 34.0593 14.9902 33.7364 15.7163 33.5122C20.7089 31.9748 24.5546 34.1101 26.3201 34.9982C28.0738 35.8812 30.4368 36.8679 31.9363 38.4939L28.9429 38.5919C28.8198 38.6056 28.4462 40.4594 28.5457 41.4977C28.5643 41.7001 28.6905 41.8198 28.8658 41.7828C29.9979 41.5369 31.6198 41.6355 32.7718 41.6174C33.0615 41.6116 33.6459 41.6414 34.1886 41.6747C34.7176 41.7059 35.2063 41.7458 35.3455 41.7632C35.5849 41.7944 35.841 41.8656 36.0294 41.6653C36.2575 41.4266 37.2174 39.5996 36.9631 39.1694Z" fill="#004071"/>
<path d="M10.3301 32.4554C8.33582 33.9965 6.42231 36.6586 5.03597 38.9332C4.97194 39.0377 4.99867 39.2067 5.07452 39.2909C5.19761 39.4288 5.32381 39.5623 5.45374 39.6921C5.68624 39.3736 5.91005 39.0471 6.13074 38.717C5.94548 39.0827 5.76209 39.4484 5.57807 39.8162C5.80561 40.0382 6.04122 40.2486 6.28367 40.4453C6.9843 39.1988 7.62151 37.9109 8.22392 36.5998C8.23573 36.647 8.25749 36.6905 8.28608 36.7253C8.12445 37.0337 7.96281 37.3384 7.80615 37.649C7.32436 38.6045 6.86307 39.5739 6.42479 40.5585C6.61316 40.7101 6.80899 40.8516 7.00606 40.9829C7.06325 40.914 7.11921 40.8436 7.17267 40.7747C7.13723 40.8574 7.10179 40.9415 7.06636 41.0243C7.16893 41.0932 7.27151 41.1599 7.37657 41.2231C7.44061 41.2622 7.50278 41.2666 7.55873 41.2485C8.08404 40.1043 8.60998 38.9601 9.13529 37.8159C9.43867 37.2913 9.73148 36.7565 10.0162 36.2174C9.54436 37.218 9.07126 38.2185 8.59817 39.2198C8.27987 39.896 7.95971 40.5722 7.63955 41.2485C7.7471 41.3116 7.88697 41.2992 7.96468 41.1425C8.73121 39.5891 9.68982 38.109 10.8113 36.8567C10.82 36.8349 10.83 36.8153 10.8381 36.7935C10.8381 36.8037 10.8399 36.8131 10.8412 36.8233C11.6835 35.8873 12.6185 35.0798 13.6325 34.4623C14.8081 32.8008 16.0701 31.2227 17.4092 29.7382C17.4819 29.6577 17.554 29.5793 17.6267 29.5002C15.0468 29.7774 12.5819 30.7156 10.3301 32.4554ZM6.05303 37.8674C6.14753 37.6867 6.2414 37.5039 6.33403 37.321C6.36076 37.313 6.38811 37.3036 6.41298 37.2956C6.29548 37.4879 6.17426 37.6787 6.05303 37.8674ZM8.74675 35.7524C8.64417 35.8779 8.53973 36.0063 8.43653 36.134C8.5273 35.9338 8.61682 35.7328 8.70634 35.5325C8.77845 35.4498 8.84933 35.3656 8.92206 35.2829C8.863 35.4397 8.80581 35.5949 8.74675 35.7524Z" fill="#125080"/>
<path d="M36.9635 39.1689C36.6551 38.6501 36.2343 37.4268 35.9918 36.8609C35.7444 36.287 35.5119 35.7029 35.2894 35.1152C34.9506 34.2148 34.6373 33.3005 34.3346 32.3842C34.3265 32.4291 34.3178 32.4749 34.3109 32.5198C34.2382 32.551 34.1798 32.6163 34.1574 32.7107C33.524 35.6398 33.5445 38.7524 34.1879 41.6757C34.7169 41.7069 35.2055 41.7468 35.3447 41.7642C35.5841 41.7954 35.8402 41.8666 36.0285 41.6663C36.2579 41.4261 37.2177 39.5992 36.9635 39.1689ZM34.5279 35.5302C34.5416 35.1253 34.5633 34.7219 34.5969 34.3192C34.5969 34.3504 34.5988 34.3802 34.5988 34.4114C34.5664 34.7829 34.5447 35.1565 34.5279 35.5302Z" fill="#3587C6"/>
</g>
</svg>
