<svg width="86" height="87" viewBox="0 0 86 87" fill="none" xmlns="http://www.w3.org/2000/svg">
<circle cx="43.0001" cy="43.5605" r="43" fill="#D3F1FF"/>
<mask id="mask0_1_5153" style="mask-type:alpha" maskUnits="userSpaceOnUse" x="0" y="0" width="86" height="87">
<path d="M43.0001 86.8596C66.7483 86.8596 86.0001 67.5409 86.0001 43.7101C86.0001 19.8792 66.7483 0.560547 43.0001 0.560547C19.2518 0.560547 7.62939e-05 19.8792 7.62939e-05 43.7101C7.62939e-05 67.5409 19.2518 86.8596 43.0001 86.8596Z" fill="#39AFE0"/>
</mask>
<g mask="url(#mask0_1_5153)">
<path d="M35.485 26.8175L33.5822 24.9146C32.806 24.1385 32.806 22.8615 33.5822 22.0854L35.485 20.1825C35.8105 19.857 36.0734 19.2185 36.0734 18.7679V16.0763C36.0734 14.9747 36.9748 14.0733 38.0764 14.0733H40.768C41.2186 14.0733 41.8571 13.8105 42.1826 13.485L44.0854 11.5821C44.8616 10.806 46.1385 10.806 46.9147 11.5821L48.8176 13.485C49.1431 13.8105 49.7815 14.0733 50.2322 14.0733H52.9237C54.0254 14.0733 54.9267 14.9747 54.9267 16.0763V18.7679C54.9267 19.2185 55.1896 19.857 55.5151 20.1825L57.418 22.0854C58.1941 22.8615 58.1941 24.1385 57.418 24.9146L55.5151 26.8175C55.1896 27.143 54.9267 27.7815 54.9267 28.2321V30.9235C54.9267 32.0252 54.0254 32.9267 52.9237 32.9267H50.2322C49.7815 32.9267 49.1431 33.1895 48.8176 33.515L46.9147 35.4179C46.1385 36.194 44.8616 36.194 44.0854 35.4179L42.1826 33.515C41.8571 33.1895 41.2186 32.9267 40.768 32.9267H38.0764C36.9748 32.9267 36.0734 32.0252 36.0734 30.9235V28.2321C36.0734 27.7689 35.8105 27.1305 35.485 26.8175Z" fill="#99DAFF" stroke="#064779" stroke-width="1.31429"/>
<path d="M40.1693 26.3861C39.7477 26.3861 39.3738 26.314 39.0477 26.1699C38.7233 26.0239 38.4675 25.823 38.2801 25.5672C38.0927 25.3113 37.9972 25.0167 37.9936 24.6834H39.3396C39.345 24.8041 39.3837 24.9113 39.4558 25.005C39.5278 25.0969 39.626 25.169 39.7504 25.2212C39.8747 25.2735 40.0161 25.2996 40.1747 25.2996C40.3332 25.2996 40.4729 25.2717 40.5936 25.2158C40.7161 25.1582 40.8116 25.0798 40.8801 24.9807C40.9486 24.8798 40.9819 24.7645 40.9801 24.6347C40.9819 24.505 40.945 24.3897 40.8693 24.2888C40.7936 24.1879 40.6864 24.1095 40.5477 24.0537C40.4107 23.9978 40.2486 23.9699 40.0612 23.9699H39.5233V23.0185H40.0612C40.2251 23.0185 40.3693 22.9915 40.4936 22.9374C40.6197 22.8834 40.7179 22.8077 40.7882 22.7104C40.8585 22.6113 40.8927 22.4978 40.8909 22.3699C40.8927 22.2455 40.863 22.1365 40.8017 22.0428C40.7423 21.9474 40.6585 21.8735 40.5504 21.8212C40.4441 21.769 40.3206 21.7428 40.1801 21.7428C40.0323 21.7428 39.8981 21.769 39.7774 21.8212C39.6585 21.8735 39.5639 21.9474 39.4936 22.0428C39.4233 22.1383 39.3864 22.2492 39.3828 22.3753H38.1044C38.108 22.0455 38.1999 21.7555 38.3801 21.505C38.5603 21.2528 38.8053 21.0555 39.1152 20.9131C39.4269 20.7708 39.7819 20.6996 40.1801 20.6996C40.5765 20.6996 40.9251 20.769 41.226 20.9077C41.5269 21.0464 41.7612 21.2356 41.9287 21.4753C42.0963 21.7131 42.1801 21.9825 42.1801 22.2834C42.1819 22.5951 42.0801 22.8519 41.8747 23.0537C41.6711 23.2555 41.4089 23.3798 41.0882 23.4266V23.4699C41.517 23.5203 41.8405 23.6591 42.0585 23.8861C42.2783 24.1131 42.3873 24.3969 42.3855 24.7374C42.3855 25.0582 42.2909 25.3428 42.1017 25.5915C41.9143 25.8383 41.6531 26.0329 41.3179 26.1753C40.9846 26.3158 40.6017 26.3861 40.1693 26.3861Z" fill="#06193B"/>
<path d="M44.8586 26.4455C44.3757 26.4455 43.9595 26.3311 43.61 26.1023C43.2604 25.8717 42.991 25.541 42.8018 25.1104C42.6127 24.678 42.519 24.1582 42.5208 23.551C42.5226 22.9437 42.6172 22.4284 42.8046 22.005C42.9937 21.5798 43.2622 21.2564 43.61 21.0347C43.9595 20.8113 44.3757 20.6996 44.8586 20.6996C45.3415 20.6996 45.7577 20.8113 46.1073 21.0347C46.4586 21.2564 46.7289 21.5798 46.9181 22.005C47.1073 22.4302 47.2009 22.9455 47.1991 23.551C47.1991 24.16 47.1046 24.6807 46.9154 25.1131C46.7262 25.5455 46.4568 25.8762 46.1073 26.105C45.7595 26.332 45.3433 26.4455 44.8586 26.4455ZM44.8586 25.351C45.1469 25.351 45.3802 25.2041 45.5586 24.9104C45.737 24.6149 45.8253 24.1618 45.8235 23.551C45.8235 23.151 45.7829 22.8212 45.7018 22.5618C45.6208 22.3005 45.5082 22.1059 45.364 21.978C45.2199 21.8501 45.0514 21.7861 44.8586 21.7861C44.5721 21.7861 44.3406 21.9311 44.164 22.2212C43.9874 22.5095 43.8982 22.9528 43.8964 23.551C43.8946 23.9564 43.9334 24.2924 44.0127 24.5591C44.0937 24.8257 44.2073 25.0248 44.3532 25.1564C44.4991 25.2861 44.6676 25.351 44.8586 25.351Z" fill="#06193B"/>
<path d="M50.4946 25.2726V24.9807C50.4946 24.7537 50.5432 24.5437 50.6405 24.351C50.7396 24.1582 50.8828 24.0032 51.0702 23.8861C51.2576 23.769 51.4864 23.7104 51.7567 23.7104C52.0324 23.7104 52.2639 23.769 52.4513 23.8861C52.6405 24.0014 52.7828 24.1555 52.8783 24.3483C52.9756 24.5392 53.0243 24.7501 53.0243 24.9807V25.2726C53.0243 25.4996 52.9756 25.7095 52.8783 25.9023C52.781 26.0951 52.6378 26.2501 52.4486 26.3672C52.2594 26.4843 52.0288 26.5428 51.7567 26.5428C51.4828 26.5428 51.2522 26.4843 51.0648 26.3672C50.8774 26.2501 50.7351 26.0951 50.6378 25.9023C50.5423 25.7095 50.4946 25.4996 50.4946 25.2726ZM51.3567 24.9807V25.2726C51.3567 25.3879 51.3846 25.4987 51.4405 25.605C51.4982 25.7113 51.6036 25.7645 51.7567 25.7645C51.9135 25.7645 52.0189 25.7131 52.0729 25.6104C52.127 25.5059 52.154 25.3933 52.154 25.2726V24.9807C52.154 24.86 52.1279 24.7464 52.0756 24.6401C52.0252 24.532 51.9189 24.478 51.7567 24.478C51.6054 24.478 51.5009 24.532 51.4432 24.6401C51.3855 24.7464 51.3567 24.86 51.3567 24.9807ZM47.6243 22.105V21.8131C47.6243 21.5825 47.6738 21.3717 47.7729 21.1807C47.8738 20.9879 48.018 20.8338 48.2054 20.7185C48.3927 20.6014 48.6198 20.5428 48.8864 20.5428C49.1621 20.5428 49.3937 20.6014 49.581 20.7185C49.7702 20.8338 49.9135 20.9879 50.0108 21.1807C50.1081 21.3717 50.1567 21.5825 50.1567 21.8131V22.105C50.1567 22.3356 50.1072 22.5464 50.0081 22.7374C49.9108 22.9284 49.7675 23.0807 49.5783 23.1942C49.3891 23.3077 49.1585 23.3645 48.8864 23.3645C48.6144 23.3645 48.3837 23.3068 48.1946 23.1915C48.0072 23.0762 47.8648 22.923 47.7675 22.732C47.672 22.541 47.6243 22.332 47.6243 22.105ZM48.4946 21.8131V22.105C48.4946 22.2257 48.5225 22.3383 48.5783 22.4428C48.636 22.5455 48.7387 22.5969 48.8864 22.5969C49.045 22.5969 49.1504 22.5455 49.2027 22.4428C49.2567 22.3383 49.2837 22.2257 49.2837 22.105V21.8131C49.2837 21.6924 49.2585 21.5789 49.2081 21.4726C49.1576 21.3645 49.0504 21.3104 48.8864 21.3104C48.7351 21.3104 48.6315 21.3654 48.5756 21.4753C48.5216 21.5852 48.4946 21.6978 48.4946 21.8131ZM48.0324 26.3104L51.8378 20.7753H52.5756L48.7702 26.3104H48.0324Z" fill="#06193B"/>
<path d="M33.1296 56.0493L41.0873 41H48.1859L63.2352 56.0493H33.1296Z" fill="#99DAFF" stroke="black" stroke-width="0.405739" stroke-miterlimit="10" stroke-linejoin="round"/>
<path d="M55.6719 55.4086L55.665 77.8731C55.665 83.493 51.1085 88.0494 45.4888 88.0494H28.348C22.7283 88.0494 23.9466 92.6055 23.9466 98.2254C23.9466 103.845 28.5029 104.641 34.1226 104.641L45.4607 108.401C51.0806 108.401 55.6366 112.958 55.6366 118.578V138.317C55.6366 141.458 53.0946 144 49.9536 144H47.4043V109.373C47.4043 101.056 36.8832 101.19 31.2705 101.19L27.5804 108.437C26.0452 108.394 23.024 108.162 20.0734 105.148C14.3902 99.4154 9.75643 88.1338 9.75643 84.0493C9.75643 78.4294 14.3128 73.8733 19.9325 73.8733H31.2987C36.9184 73.8733 41.4748 69.3169 41.4748 63.697V55.8167" fill="url(#paint0_linear_1_5153)"/>
<path d="M55.6719 55.4086L55.665 77.8731C55.665 83.493 51.1085 88.0494 45.4888 88.0494H28.348C22.7283 88.0494 23.9466 92.6055 23.9466 98.2254C23.9466 103.845 28.5029 104.641 34.1226 104.641L45.4607 108.401C51.0806 108.401 55.6366 112.958 55.6366 118.578V138.317C55.6366 141.458 53.0946 144 49.9536 144H47.4043V109.373C47.4043 101.056 36.8832 101.19 31.2705 101.19L27.5804 108.437C26.0452 108.394 23.024 108.162 20.0733 105.148C14.3902 99.4154 9.75643 88.1338 9.75643 84.0493C9.75643 78.4294 14.3128 73.8733 19.9325 73.8733H31.2987C36.9184 73.8733 41.4748 69.3169 41.4748 63.697V55.8167" fill="#99DAFF"/>
<path d="M55.6719 55.4086L55.665 77.8731C55.665 83.493 51.1085 88.0494 45.4888 88.0494H28.348C22.7283 88.0494 23.9466 92.6055 23.9466 98.2254C23.9466 103.845 28.5029 104.641 34.1226 104.641L45.4607 108.401C51.0806 108.401 55.6366 112.958 55.6366 118.578V138.317C55.6366 141.458 53.0946 144 49.9536 144H47.4043V109.373C47.4043 101.056 36.8832 101.19 31.2705 101.19L27.5804 108.437C26.0452 108.394 23.024 108.162 20.0733 105.148C14.3902 99.4154 9.75643 88.1338 9.75643 84.0493C9.75643 78.4294 14.3128 73.8733 19.9325 73.8733H31.2987C36.9184 73.8733 41.4748 69.3169 41.4748 63.697V55.8167" stroke="black" stroke-width="0.405739" stroke-miterlimit="10" stroke-linejoin="round"/>
<path d="M13.3549 73.8523H24.7211C35.038 73.8523 34.8971 69.2958 34.8971 63.6759V56.0493H26.038L41.0873 41L56.1437 56.0493H49.0873V77.8731C49.0873 83.493 44.5309 88.0495 38.9112 88.0495H27.5521C21.9323 88.0495 17.376 92.6055 17.376 98.2254C17.376 101.725 19.1436 104.81 21.8337 106.648C20.714 105.887 19.8479 104.993 19.1858 104.176L13.3619 94.2114C7.74219 94.2114 3.18587 89.655 3.18587 84.0351C3.18587 78.4156 -9.79773 73.8523 13.3549 73.8523Z" fill="#004071" stroke="black" stroke-width="0.405739" stroke-miterlimit="10" stroke-linejoin="round"/>
<path d="M92.1909 37.7666C92.1617 37.7374 92.1325 37.7081 92.1325 37.7081L88.4819 33.7071L84.8605 29.7352L66.1985 46.7617L69.8491 50.7628L73.4413 54.7054L73.4705 54.7346C75.252 56.633 80.8302 54.3842 85.9995 49.6822C91.0519 45.0386 93.7972 39.7233 92.1909 37.7666Z" fill="#17A3DC"/>
<path d="M66.186 46.7485C67.938 48.67 73.5394 46.4155 78.6972 41.7129C83.855 37.0103 86.616 31.6405 84.864 29.7189C83.1121 27.7974 77.5106 30.0519 72.3529 34.7544C67.1951 39.457 64.4341 44.8269 66.186 46.7485Z" fill="#064778"/>
<path d="M88.5111 33.7363C90.2634 35.6638 87.5181 41.0376 82.3489 45.7396C77.1796 50.4415 71.6014 52.6903 69.8491 50.7628" stroke="#EFEFEF" stroke-width="0.619531" stroke-miterlimit="10" stroke-linecap="round" stroke-linejoin="round"/>
<path d="M88.5696 37.6497L85.2402 34.0283" stroke="#EFEFEF" stroke-width="0.619531" stroke-miterlimit="10" stroke-linecap="round" stroke-linejoin="round"/>
<path d="M87.8102 39.11L86.0287 37.0948" stroke="#EFEFEF" stroke-width="0.619531" stroke-miterlimit="10" stroke-linecap="round" stroke-linejoin="round"/>
<path d="M78.5814 37.3577C78.5814 37.3577 80.0417 37.1824 82.1736 34.8753C84.3056 32.5681 80.9762 32.5097 80.9762 32.5097L82.086 31.3999L80.2753 31.4583L79.2823 32.4512L77.2964 32.5097L76.0114 33.7363L76.6539 33.7947L69.4695 40.8039L68.7394 40.7747L67.4543 42.0013L69.4111 42.0305L68.2721 43.1111L70.1704 43.1403L71.251 42.0597L72.9449 41.9429C72.9449 41.9429 75.0184 41.68 77.1796 39.7525C79.2823 37.8834 78.7859 37.4453 78.5814 37.3577ZM73.2953 40.7747C72.3316 40.8039 70.8713 40.7455 70.8713 40.7455L73.8794 37.9126C73.8794 37.9126 74.3759 37.8834 75.5149 37.9126C76.4495 37.9126 77.4716 37.9418 76.4787 39.0516C75.5441 40.1614 74.2591 40.7455 73.2953 40.7747ZM77.9973 36.4815C77.4424 36.5691 75.3397 36.4523 75.3397 36.4523L78.1726 33.6779C78.1726 33.6779 79.8372 33.5902 80.5382 33.7071C81.2391 33.8239 81.648 34.0575 80.7426 35.0213C79.8372 35.9266 78.5522 36.3939 77.9973 36.4815Z" fill="#17A3DC"/>
</g>
<defs>
<linearGradient id="paint0_linear_1_5153" x1="32.7142" y1="55.4086" x2="32.7142" y2="144" gradientUnits="userSpaceOnUse">
<stop stop-color="#F7F8F9"/>
<stop offset="1" stop-color="#CACFD8"/>
</linearGradient>
</defs>
</svg>
